<svg xmlns="http://www.w3.org/2000/svg" width="256" height="256" fill="none" viewBox="0 0 256 256" id="react">
  <rect width="224" height="224" x="16" y="16" fill="url(#paint0_linear_531_13652)" rx="70"></rect>
  <path fill="#087EA4" d="M128 141.336C135.364 141.336 141.333 135.367 141.333 128.003C141.333 120.639 135.364 114.67 128 114.67C120.636 114.67 114.667 120.639 114.667 128.003C114.667 135.367 120.636 141.336 128 141.336Z"></path>
  <path fill="#087EA4" fill-rule="evenodd" d="M82.2274 109.829C70.3718 115.164 64.6667 121.847 64.6667 128.003C64.6667 134.158 70.3718 140.841 82.2274 146.176C93.7702 151.371 109.95 154.67 128 154.67C146.05 154.67 162.23 151.371 173.773 146.176C185.628 140.841 191.333 134.158 191.333 128.003C191.333 121.847 185.628 115.164 173.773 109.829C162.23 104.635 146.05 101.336 128 101.336C109.95 101.336 93.7702 104.635 82.2274 109.829ZM79.4917 103.75C92.0775 98.0863 109.231 94.6696 128 94.6696C146.769 94.6696 163.922 98.0863 176.508 103.75C188.781 109.273 198 117.59 198 128.003C198 138.416 188.781 146.733 176.508 152.256C163.922 157.919 146.769 161.336 128 161.336C109.231 161.336 92.0775 157.919 79.4917 152.256C67.2187 146.733 58 138.416 58 128.003C58 117.59 67.2187 109.273 79.4917 103.75Z" clip-rule="evenodd"></path>
  <path fill="#087EA4" fill-rule="evenodd" d="M120.853 79.2766C110.305 71.6768 101.665 70.0775 96.334 73.1553C91.0032 76.233 88.0682 84.5153 89.3757 97.4501C90.6488 110.043 95.8818 125.705 104.907 141.337C113.932 156.968 124.879 169.331 135.148 176.73C145.696 184.33 154.336 185.93 159.667 182.852C164.998 179.774 167.933 171.492 166.626 158.557C165.353 145.964 160.12 130.302 151.095 114.67C142.07 99.0387 131.123 86.6758 120.853 79.2766ZM124.75 73.8676C135.948 81.9355 147.484 95.0823 156.868 111.337C166.253 127.592 171.87 144.155 173.259 157.887C174.612 171.277 172.019 183.419 163.001 188.625C153.983 193.832 142.171 190.007 131.251 182.139C120.053 174.072 108.518 160.925 99.1332 144.67C89.7486 128.416 84.1309 111.852 82.7429 98.1206C81.3893 84.7305 83.9828 72.5883 93.0007 67.3818C102.019 62.1753 113.831 66.0003 124.75 73.8676Z" clip-rule="evenodd"></path>
  <path fill="#087EA4" fill-rule="evenodd" d="M166.626 97.4501C167.933 84.5153 164.998 76.233 159.667 73.1553C154.336 70.0775 145.696 71.6768 135.148 79.2766C124.879 86.6758 113.932 99.0387 104.907 114.67C95.8818 130.302 90.6487 145.964 89.3757 158.557C88.0682 171.492 91.0032 179.774 96.334 182.852C101.665 185.93 110.305 184.33 120.853 176.73C131.123 169.331 142.07 156.968 151.095 141.337C160.12 125.705 165.353 110.043 166.626 97.4501ZM173.259 98.1206C171.87 111.852 166.253 128.416 156.868 144.67C147.484 160.925 135.948 174.072 124.75 182.139C113.831 190.007 102.019 193.832 93.0007 188.625C83.9828 183.419 81.3893 171.277 82.7428 157.887C84.1309 144.155 89.7486 127.592 99.1332 111.337C108.518 95.0823 120.053 81.9355 131.251 73.8676C142.171 66.0004 153.983 62.1753 163.001 67.3818C172.019 72.5883 174.612 84.7305 173.259 98.1206Z" clip-rule="evenodd"></path>
  <defs>
    <linearGradient id="paint0_linear_531_13652" x1="16" x2="208" y1="16" y2="240" gradientUnits="userSpaceOnUse">
      <stop stop-color="#fff"></stop>
      <stop offset="1" stop-color="#ACCCFF"></stop>
    </linearGradient>
  </defs>
</svg>
